<?xml version="1.0" encoding="UTF-8"?><svg xmlns="http://www.w3.org/2000/svg" xmlns:xlink="http://www.w3.org/1999/xlink" contentScriptType="application/ecmascript" contentStyleType="text/css" height="617px" preserveAspectRatio="none" style="width:1043px;height:617px;" version="1.1" viewBox="0 0 1043 617" width="1043px" zoomAndPan="magnify">
    <defs/>
    <g>
        <text fill="#000000" font-family="sans-serif" font-size="40" lengthAdjust="spacingAndGlyphs" textLength="364" x="356" y="41.5234">Navigations Diagram</text>
        <!--cluster loggedIn-->
        <rect fill="#FEFECE" height="432" rx="12.5" ry="12.5" style="stroke: #A80036; stroke-width: 1.5;" width="341" x="701" y="184.3125"/>
        <rect fill="#FFFFFF" height="398.3906" rx="12.5" ry="12.5" style="stroke: #FFFFFF; stroke-width: 1.0;" width="335" x="704" y="214.9219"/>
        <line style="stroke: #A80036; stroke-width: 1.5;" x1="701" x2="1042" y1="211.9219" y2="211.9219"/>
        <text fill="#000000" font-family="sans-serif" font-size="14" lengthAdjust="spacingAndGlyphs" textLength="54" x="844.5" y="202.8457">loggedIn</text>
        <!--cluster admin-->
        <rect fill="#FEFECE" height="542" rx="12.5" ry="12.5" style="stroke: #A80036; stroke-width: 1.5;" width="362" x="22" y="74.3125"/>
        <rect fill="#FFFFFF" height="508.3906" rx="12.5" ry="12.5" style="stroke: #FFFFFF; stroke-width: 1.0;" width="356" x="25" y="104.9219"/>
        <line style="stroke: #A80036; stroke-width: 1.5;" x1="22" x2="384" y1="101.9219" y2="101.9219"/>
        <text fill="#000000" font-family="sans-serif" font-size="14" lengthAdjust="spacingAndGlyphs" textLength="38" x="184" y="92.8457">admin</text>
        <rect fill="#FEFECE" height="50" rx="12.5" ry="12.5" style="stroke: #A80036; stroke-width: 1.5;" width="81" x="717.5" y="220.3125"/>
        <line style="stroke: #A80036; stroke-width: 1.5;" x1="717.5" x2="798.5" y1="247.9219" y2="247.9219"/>
        <text fill="#000000" font-family="sans-serif" font-size="14" lengthAdjust="spacingAndGlyphs" textLength="61" x="727.5" y="239.8457">logout.jsp</text>
        <rect fill="#FEFECE" height="50" rx="12.5" ry="12.5" style="stroke: #A80036; stroke-width: 1.5;" width="88" x="938" y="330.3125"/>
        <line style="stroke: #A80036; stroke-width: 1.5;" x1="938" x2="1026" y1="357.9219" y2="357.9219"/>
        <text fill="#000000" font-family="sans-serif" font-size="14" lengthAdjust="spacingAndGlyphs" textLength="68" x="948" y="349.8457">usersPage</text>
        <rect fill="#FEFECE" height="50" rx="12.5" ry="12.5" style="stroke: #A80036; stroke-width: 1.5;" width="133" x="892.5" y="440.3125"/>
        <line style="stroke: #A80036; stroke-width: 1.5;" x1="892.5" x2="1025.5" y1="467.9219" y2="467.9219"/>
        <text fill="#000000" font-family="sans-serif" font-size="14" lengthAdjust="spacingAndGlyphs" textLength="113" x="902.5" y="459.8457">proOrderPage.jsp</text>
        <rect fill="#FEFECE" height="50" rx="12.5" ry="12.5" style="stroke: #A80036; stroke-width: 1.5;" width="189" x="836.5" y="550.3125"/>
        <line style="stroke: #A80036; stroke-width: 1.5;" x1="836.5" x2="1025.5" y1="577.9219" y2="577.9219"/>
        <text fill="#000000" font-family="sans-serif" font-size="14" lengthAdjust="spacingAndGlyphs" textLength="169" x="846.5" y="569.8457">userSpecificOrderPage.jsp</text>
        <rect fill="#FEFECE" height="50" rx="12.5" ry="12.5" style="stroke: #A80036; stroke-width: 1.5;" width="84" x="834" y="220.3125"/>
        <line style="stroke: #A80036; stroke-width: 1.5;" x1="834" x2="918" y1="247.9219" y2="247.9219"/>
        <text fill="#000000" font-family="sans-serif" font-size="14" lengthAdjust="spacingAndGlyphs" textLength="64" x="844" y="239.8457">shopPage</text>
        <rect fill="#FEFECE" height="50" rx="12.5" ry="12.5" style="stroke: #A80036; stroke-width: 1.5;" width="106" x="797" y="330.3125"/>
        <line style="stroke: #A80036; stroke-width: 1.5;" x1="797" x2="903" y1="357.9219" y2="357.9219"/>
        <text fill="#000000" font-family="sans-serif" font-size="14" lengthAdjust="spacingAndGlyphs" textLength="86" x="807" y="349.8457">shopPage.jsp</text>
        <rect fill="#FEFECE" height="50" rx="12.5" ry="12.5" style="stroke: #A80036; stroke-width: 1.5;" width="140" x="717" y="440.3125"/>
        <line style="stroke: #A80036; stroke-width: 1.5;" x1="717" x2="857" y1="467.9219" y2="467.9219"/>
        <text fill="#000000" font-family="sans-serif" font-size="14" lengthAdjust="spacingAndGlyphs" textLength="120" x="727" y="459.8457">userOrderPage.jsp</text>
        <rect fill="#FEFECE" height="50" rx="12.5" ry="12.5" style="stroke: #A80036; stroke-width: 1.5;" width="128" x="240" y="220.3125"/>
        <line style="stroke: #A80036; stroke-width: 1.5;" x1="240" x2="368" y1="247.9219" y2="247.9219"/>
        <text fill="#000000" font-family="sans-serif" font-size="14" lengthAdjust="spacingAndGlyphs" textLength="108" x="250" y="239.8457">adminOrderPage</text>
        <rect fill="#FEFECE" height="50" rx="12.5" ry="12.5" style="stroke: #A80036; stroke-width: 1.5;" width="157" x="141.5" y="330.3125"/>
        <line style="stroke: #A80036; stroke-width: 1.5;" x1="141.5" x2="298.5" y1="357.9219" y2="357.9219"/>
        <text fill="#000000" font-family="sans-serif" font-size="14" lengthAdjust="spacingAndGlyphs" textLength="137" x="151.5" y="349.8457">adminOrdersPage.jsp</text>
        <rect fill="#FEFECE" height="50" rx="12.5" ry="12.5" style="stroke: #A80036; stroke-width: 1.5;" width="199" x="168.5" y="440.3125"/>
        <line style="stroke: #A80036; stroke-width: 1.5;" x1="168.5" x2="367.5" y1="467.9219" y2="467.9219"/>
        <text fill="#000000" font-family="sans-serif" font-size="14" lengthAdjust="spacingAndGlyphs" textLength="179" x="178.5" y="459.8457">adminSpecificOrderPage.jsp</text>
        <rect fill="#FEFECE" height="50" rx="12.5" ry="12.5" style="stroke: #A80036; stroke-width: 1.5;" width="95" x="38.5" y="440.3125"/>
        <line style="stroke: #A80036; stroke-width: 1.5;" x1="38.5" x2="133.5" y1="467.9219" y2="467.9219"/>
        <text fill="#000000" font-family="sans-serif" font-size="14" lengthAdjust="spacingAndGlyphs" textLength="75" x="48.5" y="459.8457">createPiece</text>
        <rect fill="#FEFECE" height="50" rx="12.5" ry="12.5" style="stroke: #A80036; stroke-width: 1.5;" width="117" x="38.5" y="550.3125"/>
        <line style="stroke: #A80036; stroke-width: 1.5;" x1="38.5" x2="155.5" y1="577.9219" y2="577.9219"/>
        <text fill="#000000" font-family="sans-serif" font-size="14" lengthAdjust="spacingAndGlyphs" textLength="97" x="48.5" y="569.8457">createPiece.jsp</text>
        <rect fill="#FEFECE" height="50" rx="12.5" ry="12.5" style="stroke: #A80036; stroke-width: 1.5;" width="108" x="250" y="110.3125"/>
        <line style="stroke: #A80036; stroke-width: 1.5;" x1="250" x2="358" y1="137.9219" y2="137.9219"/>
        <text fill="#000000" font-family="sans-serif" font-size="14" lengthAdjust="spacingAndGlyphs" textLength="88" x="260" y="129.8457">updateInvoice</text>
        <ellipse cx="511" cy="245.3125" fill="#000000" rx="10" ry="10" style="stroke: none; stroke-width: 1.0;"/>
        <rect fill="#FEFECE" height="50" rx="12.5" ry="12.5" style="stroke: #A80036; stroke-width: 1.5;" width="75" x="473.5" y="330.3125"/>
        <line style="stroke: #A80036; stroke-width: 1.5;" x1="473.5" x2="548.5" y1="357.9219" y2="357.9219"/>
        <text fill="#000000" font-family="sans-serif" font-size="14" lengthAdjust="spacingAndGlyphs" textLength="55" x="483.5" y="349.8457">index.jsp</text>
        <rect fill="#FEFECE" height="50" rx="12.5" ry="12.5" style="stroke: #A80036; stroke-width: 1.5;" width="144" x="541" y="550.3125"/>
        <line style="stroke: #A80036; stroke-width: 1.5;" x1="541" x2="685" y1="577.9219" y2="577.9219"/>
        <text fill="#000000" font-family="sans-serif" font-size="14" lengthAdjust="spacingAndGlyphs" textLength="124" x="551" y="569.8457">createUserPage.jsp</text>
        <rect fill="#FEFECE" height="50" rx="12.5" ry="12.5" style="stroke: #A80036; stroke-width: 1.5;" width="107" x="553.5" y="440.3125"/>
        <line style="stroke: #A80036; stroke-width: 1.5;" x1="553.5" x2="660.5" y1="467.9219" y2="467.9219"/>
        <text fill="#000000" font-family="sans-serif" font-size="14" lengthAdjust="spacingAndGlyphs" textLength="87" x="563.5" y="459.8457">welcomePage</text>
        <rect fill="#FEFECE" height="50" rx="12.5" ry="12.5" style="stroke: #A80036; stroke-width: 1.5;" width="87" x="636.5" y="110.3125"/>
        <line style="stroke: #A80036; stroke-width: 1.5;" x1="636.5" x2="723.5" y1="137.9219" y2="137.9219"/>
        <text fill="#000000" font-family="sans-serif" font-size="14" lengthAdjust="spacingAndGlyphs" textLength="67" x="646.5" y="129.8457">header.jsp</text>
        <rect fill="#FEFECE" height="50" rx="12.5" ry="12.5" style="stroke: #A80036; stroke-width: 1.5;" width="105" x="400.5" y="550.3125"/>
        <line style="stroke: #A80036; stroke-width: 1.5;" x1="400.5" x2="505.5" y1="577.9219" y2="577.9219"/>
        <text fill="#000000" font-family="sans-serif" font-size="14" lengthAdjust="spacingAndGlyphs" textLength="85" x="410.5" y="569.8457">loginPage.jsp</text>
        <path d="M511,255.5205 C511,270.6965 511,301.5905 511,324.8135 " fill="none" style="stroke: #A80036; stroke-width: 1.0;"/>
        <polygon fill="#A80036" points="511,329.9405,515,320.9405,511,324.9405,507,320.9405,511,329.9405" style="stroke: #A80036; stroke-width: 1.0;"/>
        <path d="M623.127,550.1561 C624.683,534.0541 623.735,512.7915 620.801,495.7075 " fill="none" style="stroke: #A80036; stroke-width: 1.0;"/>
        <polygon fill="#A80036" points="619.828,490.5495,617.5664,500.1352,620.7552,495.4628,625.4276,498.6516,619.828,490.5495" style="stroke: #A80036; stroke-width: 1.0;"/>
        <path d="M597.503,490.5495 C596.091,506.6695 597.06,527.9335 599.889,545.0036 " fill="none" style="stroke: #A80036; stroke-width: 1.0;"/>
        <polygon fill="#A80036" points="600.826,550.1561,603.1502,540.5854,599.9309,545.2369,595.2794,542.0176,600.826,550.1561" style="stroke: #A80036; stroke-width: 1.0;"/>
        <path d="M674.632,160.4315 C661.501,219.4295 627.795,370.8755 613.532,434.9645 " fill="none" style="stroke: #A80036; stroke-width: 1.0;"/>
        <polygon fill="#A80036" points="612.376,440.1585,618.2373,432.2436,613.4632,435.2781,610.4287,430.5041,612.376,440.1585" style="stroke: #A80036; stroke-width: 1.0;"/>
        <path d="M532.544,380.5495 C547.243,397.0855 566.755,419.0375 582.117,436.3195 " fill="none" style="stroke: #A80036; stroke-width: 1.0;"/>
        <polygon fill="#A80036" points="585.528,440.1565,582.539,430.7721,582.2064,436.4192,576.5594,436.0866,585.528,440.1565" style="stroke: #A80036; stroke-width: 1.0;"/>
        <path d="M498.914,550.1561 C525.311,533.4295 557.256,511.1335 579.82,493.7385 " fill="none" style="stroke: #A80036; stroke-width: 1.0;"/>
        <polygon fill="#A80036" points="583.92,490.5495,574.3601,492.9176,579.9732,493.6192,579.2716,499.2324,583.92,490.5495" style="stroke: #A80036; stroke-width: 1.0;"/>
        <path d="M561.596,490.5495 C535.323,507.2945 503.392,529.5915 480.733,546.9707 " fill="none" style="stroke: #A80036; stroke-width: 1.0;"/>
        <polygon fill="#A80036" points="476.614,550.1561,486.1806,547.815,480.5694,547.0975,481.2869,541.4864,476.614,550.1561" style="stroke: #A80036; stroke-width: 1.0;"/>
        <path d="M697.505,160.5495 C709.347,176.9465 725.035,198.6685 737.467,215.8825 " fill="none" style="stroke: #A80036; stroke-width: 1.0;"/>
        <polygon fill="#A80036" points="740.554,220.1565,738.5272,210.5185,737.6265,216.1031,732.0418,215.2025,740.554,220.1565" style="stroke: #A80036; stroke-width: 1.0;"/>
        <path d="M723.67,137.4925 C788.435,140.1525 905.59,148.7425 936,176.3125 C977.98,214.3715 983.858,285.2455 983.516,325.1195 " fill="none" style="stroke: #A80036; stroke-width: 1.0;"/>
        <polygon fill="#A80036" points="983.436,330.2975,987.5769,321.3615,983.5146,325.2981,979.5779,321.2358,983.436,330.2975" style="stroke: #A80036; stroke-width: 1.0;"/>
        <path d="M741.263,270.4755 C713.202,310.9875 656.797,392.4205 626.806,435.7185 " fill="none" style="stroke: #A80036; stroke-width: 1.0;"/>
        <polygon fill="#A80036" points="623.812,440.0415,632.2251,434.921,626.6592,435.9314,625.6489,430.3655,623.812,440.0415" style="stroke: #A80036; stroke-width: 1.0;"/>
        <path d="M941.873,490.5495 C935.386,506.6695 929.66,527.9335 927.116,545.0036 " fill="none" style="stroke: #A80036; stroke-width: 1.0;"/>
        <polygon fill="#A80036" points="926.431,550.1561,931.5817,541.7614,927.0896,545.1997,923.6514,540.7076,926.431,550.1561" style="stroke: #A80036; stroke-width: 1.0;"/>
        <path d="M948.732,550.1561 C955.357,534.0541 961.103,512.7915 963.547,495.7075 " fill="none" style="stroke: #A80036; stroke-width: 1.0;"/>
        <polygon fill="#A80036" points="964.197,490.5495,959.102,498.9781,963.5712,495.5102,967.0391,499.9794,964.197,490.5495" style="stroke: #A80036; stroke-width: 1.0;"/>
        <path d="M833.934,263.8255 C827.953,266.1145 821.848,268.3445 816,270.3125 C723.852,301.3235 613.303,329.6125 553.863,344.1155 " fill="none" style="stroke: #A80036; stroke-width: 1.0;"/>
        <polygon fill="#A80036" points="548.973,345.3055,558.6639,347.0624,553.831,344.1224,556.771,339.2896,548.973,345.3055" style="stroke: #A80036; stroke-width: 1.0;"/>
        <path d="M859.322,270.5495 C853.134,286.6695 847.801,307.9335 845.573,325.0035 " fill="none" style="stroke: #A80036; stroke-width: 1.0;"/>
        <polygon fill="#A80036" points="844.984,330.1565,849.9813,321.6696,845.5525,325.1889,842.0332,320.7601,844.984,330.1565" style="stroke: #A80036; stroke-width: 1.0;"/>
        <path d="M867.284,330.1565 C873.611,314.0545 878.963,292.7915 881.092,275.7075 " fill="none" style="stroke: #A80036; stroke-width: 1.0;"/>
        <polygon fill="#A80036" points="881.646,270.5495,876.7072,279.0705,881.1117,275.5209,884.6614,279.9254,881.646,270.5495" style="stroke: #A80036; stroke-width: 1.0;"/>
        <path d="M899.788,270.5495 C916.018,287.0855 937.563,309.0375 954.525,326.3195 " fill="none" style="stroke: #A80036; stroke-width: 1.0;"/>
        <polygon fill="#A80036" points="958.291,330.1565,954.841,320.9317,954.7885,326.5883,949.1319,326.5357,958.291,330.1565" style="stroke: #A80036; stroke-width: 1.0;"/>
        <path d="M819.316,490.5495 C841.642,507.2945 871.372,529.5915 894.544,546.9707 " fill="none" style="stroke: #A80036; stroke-width: 1.0;"/>
        <polygon fill="#A80036" points="898.791,550.1561,893.9909,541.5562,894.7909,547.1562,889.191,547.9563,898.791,550.1561" style="stroke: #A80036; stroke-width: 1.0;"/>
        <path d="M954.843,330.0355 C940.675,318.5735 922.385,306.2695 903.5,300.3125 C780.216,261.4215 626.488,309.2365 553.401,337.4385 " fill="none" style="stroke: #A80036; stroke-width: 1.0;"/>
        <polygon fill="#A80036" points="548.705,339.2665,558.543,339.7287,553.3643,337.4525,555.6406,332.2738,548.705,339.2665" style="stroke: #A80036; stroke-width: 1.0;"/>
        <path d="M976.838,380.5495 C973.406,396.6695 968.877,417.9335 965.242,435.0035 " fill="none" style="stroke: #A80036; stroke-width: 1.0;"/>
        <polygon fill="#A80036" points="964.144,440.1565,969.9305,432.1868,965.1852,435.2661,962.1059,430.5208,964.144,440.1565" style="stroke: #A80036; stroke-width: 1.0;"/>
        <path d="M938.238,380.5495 C907.629,397.5025 866.743,420.1475 835.2,437.6175 " fill="none" style="stroke: #A80036; stroke-width: 1.0;"/>
        <polygon fill="#A80036" points="830.616,440.1565,840.4271,439.2949,834.9899,437.7339,836.5509,432.2967,830.616,440.1565" style="stroke: #A80036; stroke-width: 1.0;"/>
        <path d="M636.949,440.0415 C687.434,399.1285 789.143,316.7025 842.143,273.7505 " fill="none" style="stroke: #A80036; stroke-width: 1.0;"/>
        <polygon fill="#A80036" points="846.184,270.4755,836.6737,273.0354,842.2998,273.624,841.7112,279.2502,846.184,270.4755" style="stroke: #A80036; stroke-width: 1.0;"/>
        <path d="M285.149,270.5495 C272.395,286.9465 255.501,308.6685 242.112,325.8825 " fill="none" style="stroke: #A80036; stroke-width: 1.0;"/>
        <polygon fill="#A80036" points="238.788,330.1565,247.4717,325.5096,241.8584,326.2103,241.1577,320.597,238.788,330.1565" style="stroke: #A80036; stroke-width: 1.0;"/>
        <path d="M311.097,270.4585 C317.952,297.6205 325.952,342.8385 316,380.3125 C310.72,400.1965 299.504,420.2825 289.241,435.8255 " fill="none" style="stroke: #A80036; stroke-width: 1.0;"/>
        <polygon fill="#A80036" points="286.378,440.0845,294.7189,434.8472,289.1676,435.935,288.0798,430.3838,286.378,440.0845" style="stroke: #A80036; stroke-width: 1.0;"/>
        <path d="M350.197,270.4155 C385.662,288.9185 434.235,314.2615 468.691,332.2385 " fill="none" style="stroke: #A80036; stroke-width: 1.0;"/>
        <polygon fill="#A80036" points="473.244,334.6135,467.1151,326.904,468.8111,332.3006,463.4145,333.9966,473.244,334.6135" style="stroke: #A80036; stroke-width: 1.0;"/>
        <path d="M219.929,380.5495 C224.827,396.8075 234.183,418.3005 243.736,435.4445 " fill="none" style="stroke: #A80036; stroke-width: 1.0;"/>
        <polygon fill="#A80036" points="246.432,440.1565,245.4349,430.3582,243.9492,435.8165,238.4909,434.3308,246.432,440.1565" style="stroke: #A80036; stroke-width: 1.0;"/>
        <path d="M268.733,440.1565 C263.986,423.9155 254.65,402.4245 244.985,385.2665 " fill="none" style="stroke: #A80036; stroke-width: 1.0;"/>
        <polygon fill="#A80036" points="242.253,380.5495,243.3029,390.3422,244.7592,384.876,250.2254,386.3323,242.253,380.5495" style="stroke: #A80036; stroke-width: 1.0;"/>
        <path d="M189.928,380.5495 C169.152,397.2945 141.487,419.5915 119.924,436.9705 " fill="none" style="stroke: #A80036; stroke-width: 1.0;"/>
        <polygon fill="#A80036" points="115.972,440.1565,125.4896,437.6237,119.8652,437.0191,120.4698,431.3947,115.972,440.1565" style="stroke: #A80036; stroke-width: 1.0;"/>
        <path d="M88.4686,490.5495 C90.1104,506.6695 92.2762,527.9335 94.0148,545.0036 " fill="none" style="stroke: #A80036; stroke-width: 1.0;"/>
        <polygon fill="#A80036" points="94.5396,550.1561,97.6069,540.7971,94.0329,545.1818,89.6481,541.6078,94.5396,550.1561" style="stroke: #A80036; stroke-width: 1.0;"/>
        <path d="M636.468,143.0565 C596.22,149.7835 534.962,161.2755 483,176.3125 C443.129,187.8505 399.569,204.3095 365.404,218.1445 " fill="none" style="stroke: #A80036; stroke-width: 1.0;"/>
        <polygon fill="#A80036" points="360.433,220.1665,370.2768,220.4825,365.0649,218.2835,367.2639,213.0715,360.433,220.1665" style="stroke: #A80036; stroke-width: 1.0;"/>
        <path d="M304,160.5495 C304,176.6695 304,197.9335 304,215.0035 " fill="none" style="stroke: #A80036; stroke-width: 1.0;"/>
        <polygon fill="#A80036" points="304,220.1565,308,211.1565,304,215.1565,300,211.1565,304,220.1565" style="stroke: #A80036; stroke-width: 1.0;"/>
        <!--
@startuml

title Navigations Diagram
skinparam TitleFontSize 40
skinparam shadowing false

[*] - -> index.jsp
createUserPage.jsp - -> welcomePage
header.jsp - -> welcomePage
index.jsp - -> welcomePage
loginPage.jsp - -> welcomePage
welcomePage - -> createUserPage.jsp
welcomePage - -> loginPage.jsp


state loggedIn {
header.jsp - -> logout.jsp
header.jsp - -> usersPage
logout.jsp - -> welcomePage
proOrderPage.jsp - -> userSpecificOrderPage.jsp
shopPage - -> index.jsp
shopPage - -> shopPage.jsp
shopPage - -> usersPage
shopPage.jsp - -> shopPage
userOrderPage.jsp - -> userSpecificOrderPage.jsp
usersPage - -> index.jsp
usersPage - -> proOrderPage.jsp
usersPage - -> userOrderPage.jsp
userSpecificOrderPage.jsp - -> proOrderPage.jsp
welcomePage - -> shopPage
}

state admin {
adminOrderPage - -> adminOrdersPage.jsp
adminOrderPage - -> adminSpecificOrderPage.jsp
adminOrderPage - -> index.jsp
adminOrdersPage.jsp - -> adminSpecificOrderPage.jsp
adminOrdersPage.jsp - -> createPiece
adminSpecificOrderPage.jsp - -> adminOrdersPage.jsp
createPiece - -> createPiece.jsp
header.jsp - -> adminOrderPage
updateInvoice - -> adminOrderPage
}

@enduml

PlantUML version 2017.11(Wed Apr 19 18:18:59 CEST 2017)
(GPL source distribution)
Java Runtime: Java(TM) SE Runtime Environment
JVM: Java HotSpot(TM) 64-Bit Server VM
Java Version: 1.8.0_144-b01
Operating System: Windows 10
OS Version: 10.0
Default Encoding: Cp1252
Language: da
Country: DK
-->
    </g>
</svg>
