<?xml version="1.0" encoding="UTF-8"?><svg xmlns="http://www.w3.org/2000/svg" xmlns:xlink="http://www.w3.org/1999/xlink" contentScriptType="application/ecmascript" contentStyleType="text/css" height="882px" preserveAspectRatio="none" style="width:710px;height:882px;" version="1.1" viewBox="0 0 710 882" width="710px" zoomAndPan="magnify">
    <defs/>
    <g>
        <text fill="#000000" font-family="sans-serif" font-size="14" font-weight="bold" lengthAdjust="spacingAndGlyphs" textLength="234" x="244" y="24.5332">"Shop page - Sequence Diagram"</text>
        <rect fill="#FFFFFF" height="183.1094" style="stroke: #000000; stroke-width: 2.0;" width="526.5" x="13" y="132.2188"/>
        <rect fill="#FFFFFF" height="183.1094" style="stroke: #000000; stroke-width: 2.0;" width="526.5" x="13" y="329.3281"/>
        <rect fill="#FFFFFF" height="261.1641" style="stroke: #000000; stroke-width: 2.0;" width="696" x="13" y="526.4375"/>
        <line style="stroke: #A80036; stroke-width: 1.0; stroke-dasharray: 5.0,5.0;" x1="40" x2="40" y1="115.2188" y2="804.6016"/>
        <line style="stroke: #A80036; stroke-width: 1.0; stroke-dasharray: 5.0,5.0;" x1="158.5" x2="158.5" y1="115.2188" y2="804.6016"/>
        <line style="stroke: #A80036; stroke-width: 1.0; stroke-dasharray: 5.0,5.0;" x1="301.5" x2="301.5" y1="115.2188" y2="804.6016"/>
        <line style="stroke: #A80036; stroke-width: 1.0; stroke-dasharray: 5.0,5.0;" x1="453.5" x2="453.5" y1="115.2188" y2="804.6016"/>
        <line style="stroke: #A80036; stroke-width: 1.0; stroke-dasharray: 5.0,5.0;" x1="557.5" x2="557.5" y1="115.2188" y2="804.6016"/>
        <line style="stroke: #A80036; stroke-width: 1.0; stroke-dasharray: 5.0,5.0;" x1="665" x2="665" y1="115.2188" y2="804.6016"/>
        <text fill="#000000" font-family="sans-serif" font-size="14" lengthAdjust="spacingAndGlyphs" textLength="29" x="23" y="112.1426">User</text>
        <ellipse cx="40.5" cy="44.6094" fill="#FEFECE" rx="8" ry="8" style="stroke: #A80036; stroke-width: 2.0;"/>
        <path d="M40.5,52.6094 L40.5,79.6094 M27.5,60.6094 L53.5,60.6094 M40.5,79.6094 L27.5,94.6094 M40.5,79.6094 L53.5,94.6094 " fill="#FEFECE" style="stroke: #A80036; stroke-width: 2.0;"/>
        <text fill="#000000" font-family="sans-serif" font-size="14" lengthAdjust="spacingAndGlyphs" textLength="29" x="23" y="818.1348">User</text>
        <ellipse cx="40.5" cy="831.2109" fill="#FEFECE" rx="8" ry="8" style="stroke: #A80036; stroke-width: 2.0;"/>
        <path d="M40.5,839.2109 L40.5,866.2109 M27.5,847.2109 L53.5,847.2109 M40.5,866.2109 L27.5,881.2109 M40.5,866.2109 L53.5,881.2109 " fill="#FEFECE" style="stroke: #A80036; stroke-width: 2.0;"/>
        <text fill="#000000" font-family="sans-serif" font-size="14" lengthAdjust="spacingAndGlyphs" textLength="86" x="112.5" y="112.1426">shopPage.jsp</text>
        <path d="M138,69.6094 L138,93.6094 M138,81.6094 L155,81.6094 " fill="#FEFECE" style="stroke: #A80036; stroke-width: 2.0;"/>
        <ellipse cx="167" cy="81.6094" fill="#FEFECE" rx="12" ry="12" style="stroke: #A80036; stroke-width: 2.0;"/>
        <text fill="#000000" font-family="sans-serif" font-size="14" lengthAdjust="spacingAndGlyphs" textLength="86" x="112.5" y="818.1348">shopPage.jsp</text>
        <path d="M138,825.2109 L138,849.2109 M138,837.2109 L155,837.2109 " fill="#FEFECE" style="stroke: #A80036; stroke-width: 2.0;"/>
        <ellipse cx="167" cy="837.2109" fill="#FEFECE" rx="12" ry="12" style="stroke: #A80036; stroke-width: 2.0;"/>
        <text fill="#000000" font-family="sans-serif" font-size="14" lengthAdjust="spacingAndGlyphs" textLength="169" x="214.5" y="112.1426">userSpecificOrderPage.jsp</text>
        <path d="M281.5,69.6094 L281.5,93.6094 M281.5,81.6094 L298.5,81.6094 " fill="#FEFECE" style="stroke: #A80036; stroke-width: 2.0;"/>
        <ellipse cx="310.5" cy="81.6094" fill="#FEFECE" rx="12" ry="12" style="stroke: #A80036; stroke-width: 2.0;"/>
        <text fill="#000000" font-family="sans-serif" font-size="14" lengthAdjust="spacingAndGlyphs" textLength="169" x="214.5" y="818.1348">userSpecificOrderPage.jsp</text>
        <path d="M281.5,825.2109 L281.5,849.2109 M281.5,837.2109 L298.5,837.2109 " fill="#FEFECE" style="stroke: #A80036; stroke-width: 2.0;"/>
        <ellipse cx="310.5" cy="837.2109" fill="#FEFECE" rx="12" ry="12" style="stroke: #A80036; stroke-width: 2.0;"/>
        <rect fill="#FEFECE" height="31.6094" style="stroke: #A80036; stroke-width: 1.5;" width="108" x="399.5" y="82.6094"/>
        <text fill="#000000" font-family="sans-serif" font-size="14" lengthAdjust="spacingAndGlyphs" textLength="94" x="406.5" y="104.1426">shopPage.java</text>
        <rect fill="#FEFECE" height="31.6094" style="stroke: #A80036; stroke-width: 1.5;" width="108" x="399.5" y="803.6016"/>
        <text fill="#000000" font-family="sans-serif" font-size="14" lengthAdjust="spacingAndGlyphs" textLength="94" x="406.5" y="825.1348">shopPage.java</text>
        <rect fill="#FEFECE" height="31.6094" style="stroke: #A80036; stroke-width: 1.5;" width="44" x="535.5" y="82.6094"/>
        <text fill="#000000" font-family="sans-serif" font-size="14" lengthAdjust="spacingAndGlyphs" textLength="30" x="542.5" y="104.1426">DAO</text>
        <rect fill="#FEFECE" height="31.6094" style="stroke: #A80036; stroke-width: 1.5;" width="44" x="535.5" y="803.6016"/>
        <text fill="#000000" font-family="sans-serif" font-size="14" lengthAdjust="spacingAndGlyphs" textLength="30" x="542.5" y="825.1348">DAO</text>
        <text fill="#000000" font-family="sans-serif" font-size="14" lengthAdjust="spacingAndGlyphs" textLength="61" x="632" y="112.1426">Database</text>
        <path d="M647.5,61.6094 C647.5,51.6094 665.5,51.6094 665.5,51.6094 C665.5,51.6094 683.5,51.6094 683.5,61.6094 L683.5,87.6094 C683.5,97.6094 665.5,97.6094 665.5,97.6094 C665.5,97.6094 647.5,97.6094 647.5,87.6094 L647.5,61.6094 " fill="#FEFECE" style="stroke: #000000; stroke-width: 1.5;"/>
        <path d="M647.5,61.6094 C647.5,71.6094 665.5,71.6094 665.5,71.6094 C665.5,71.6094 683.5,71.6094 683.5,61.6094 " fill="none" style="stroke: #000000; stroke-width: 1.5;"/>
        <text fill="#000000" font-family="sans-serif" font-size="14" lengthAdjust="spacingAndGlyphs" textLength="61" x="632" y="818.1348">Database</text>
        <path d="M647.5,831.2109 C647.5,821.2109 665.5,821.2109 665.5,821.2109 C665.5,821.2109 683.5,821.2109 683.5,831.2109 L683.5,857.2109 C683.5,867.2109 665.5,867.2109 665.5,867.2109 C665.5,867.2109 647.5,867.2109 647.5,857.2109 L647.5,831.2109 " fill="#FEFECE" style="stroke: #000000; stroke-width: 1.5;"/>
        <path d="M647.5,831.2109 C647.5,841.2109 665.5,841.2109 665.5,841.2109 C665.5,841.2109 683.5,841.2109 683.5,831.2109 " fill="none" style="stroke: #000000; stroke-width: 1.5;"/>
        <rect fill="none" height="183.1094" style="stroke: #000000; stroke-width: 2.0;" width="526.5" x="13" y="132.2188"/>
        <polygon fill="#EEEEEE" points="13,132.2188,127,132.2188,127,140.2188,117,150.2188,13,150.2188,13,132.2188" style="stroke: #000000; stroke-width: 2.0;"/>
        <text fill="#000000" font-family="sans-serif" font-size="13" font-weight="bold" lengthAdjust="spacingAndGlyphs" textLength="69" x="28" y="146.7139">Add to cart</text>
        <polygon fill="#A80036" points="146.5,168.5703,156.5,172.5703,146.5,176.5703,150.5,172.5703" style="stroke: #A80036; stroke-width: 1.0;"/>
        <line style="stroke: #A80036; stroke-width: 1.0;" x1="40.5" x2="152.5" y1="172.5703" y2="172.5703"/>
        <text fill="#000000" font-family="sans-serif" font-size="13" lengthAdjust="spacingAndGlyphs" textLength="81" x="47.5" y="168.0654">Input cupcake</text>
        <polygon fill="#A80036" points="441.5,198.9219,451.5,202.9219,441.5,206.9219,445.5,202.9219" style="stroke: #A80036; stroke-width: 1.0;"/>
        <line style="stroke: #A80036; stroke-width: 1.0;" x1="158.5" x2="447.5" y1="202.9219" y2="202.9219"/>
        <text fill="#000000" font-family="sans-serif" font-size="13" lengthAdjust="spacingAndGlyphs" textLength="64" x="165.5" y="198.417">Add to cart</text>
        <line style="stroke: #A80036; stroke-width: 1.0;" x1="453.5" x2="495.5" y1="233.625" y2="233.625"/>
        <line style="stroke: #A80036; stroke-width: 1.0;" x1="495.5" x2="495.5" y1="233.625" y2="246.625"/>
        <line style="stroke: #A80036; stroke-width: 1.0;" x1="454.5" x2="495.5" y1="246.625" y2="246.625"/>
        <polygon fill="#A80036" points="464.5,242.625,454.5,246.625,464.5,250.625,460.5,246.625" style="stroke: #A80036; stroke-width: 1.0;"/>
        <text fill="#000000" font-family="sans-serif" font-size="13" lengthAdjust="spacingAndGlyphs" textLength="67" x="460.5" y="228.7686">Update cart</text>
        <polygon fill="#A80036" points="169.5,272.625,159.5,276.625,169.5,280.625,165.5,276.625" style="stroke: #A80036; stroke-width: 1.0;"/>
        <line style="stroke: #A80036; stroke-width: 1.0;" x1="163.5" x2="452.5" y1="276.625" y2="276.625"/>
        <text fill="#000000" font-family="sans-serif" font-size="13" lengthAdjust="spacingAndGlyphs" textLength="80" x="175.5" y="272.1201">Shopping cart</text>
        <polygon fill="#A80036" points="51.5,302.9766,41.5,306.9766,51.5,310.9766,47.5,306.9766" style="stroke: #A80036; stroke-width: 1.0;"/>
        <line style="stroke: #A80036; stroke-width: 1.0;" x1="45.5" x2="157.5" y1="306.9766" y2="306.9766"/>
        <text fill="#000000" font-family="sans-serif" font-size="13" lengthAdjust="spacingAndGlyphs" textLength="58" x="57.5" y="302.4717">Show cart</text>
        <rect fill="none" height="183.1094" style="stroke: #000000; stroke-width: 2.0;" width="526.5" x="13" y="329.3281"/>
        <polygon fill="#EEEEEE" points="13,329.3281,131,329.3281,131,337.3281,121,347.3281,13,347.3281,13,329.3281" style="stroke: #000000; stroke-width: 2.0;"/>
        <text fill="#000000" font-family="sans-serif" font-size="13" font-weight="bold" lengthAdjust="spacingAndGlyphs" textLength="73" x="28" y="343.8232">Update cart</text>
        <polygon fill="#A80036" points="146.5,365.6797,156.5,369.6797,146.5,373.6797,150.5,369.6797" style="stroke: #A80036; stroke-width: 1.0;"/>
        <line style="stroke: #A80036; stroke-width: 1.0;" x1="40.5" x2="152.5" y1="369.6797" y2="369.6797"/>
        <text fill="#000000" font-family="sans-serif" font-size="13" lengthAdjust="spacingAndGlyphs" textLength="94" x="47.5" y="365.1748">Update cupcake</text>
        <polygon fill="#A80036" points="441.5,396.0313,451.5,400.0313,441.5,404.0313,445.5,400.0313" style="stroke: #A80036; stroke-width: 1.0;"/>
        <line style="stroke: #A80036; stroke-width: 1.0;" x1="158.5" x2="447.5" y1="400.0313" y2="400.0313"/>
        <text fill="#000000" font-family="sans-serif" font-size="13" lengthAdjust="spacingAndGlyphs" textLength="67" x="165.5" y="395.5264">Update cart</text>
        <line style="stroke: #A80036; stroke-width: 1.0;" x1="453.5" x2="495.5" y1="430.7344" y2="430.7344"/>
        <line style="stroke: #A80036; stroke-width: 1.0;" x1="495.5" x2="495.5" y1="430.7344" y2="443.7344"/>
        <line style="stroke: #A80036; stroke-width: 1.0;" x1="454.5" x2="495.5" y1="443.7344" y2="443.7344"/>
        <polygon fill="#A80036" points="464.5,439.7344,454.5,443.7344,464.5,447.7344,460.5,443.7344" style="stroke: #A80036; stroke-width: 1.0;"/>
        <text fill="#000000" font-family="sans-serif" font-size="13" lengthAdjust="spacingAndGlyphs" textLength="67" x="460.5" y="425.8779">Update cart</text>
        <polygon fill="#A80036" points="169.5,469.7344,159.5,473.7344,169.5,477.7344,165.5,473.7344" style="stroke: #A80036; stroke-width: 1.0;"/>
        <line style="stroke: #A80036; stroke-width: 1.0;" x1="163.5" x2="452.5" y1="473.7344" y2="473.7344"/>
        <text fill="#000000" font-family="sans-serif" font-size="13" lengthAdjust="spacingAndGlyphs" textLength="80" x="175.5" y="469.2295">Shopping cart</text>
        <polygon fill="#A80036" points="51.5,500.0859,41.5,504.0859,51.5,508.0859,47.5,504.0859" style="stroke: #A80036; stroke-width: 1.0;"/>
        <line style="stroke: #A80036; stroke-width: 1.0;" x1="45.5" x2="157.5" y1="504.0859" y2="504.0859"/>
        <text fill="#000000" font-family="sans-serif" font-size="13" lengthAdjust="spacingAndGlyphs" textLength="58" x="57.5" y="499.5811">Show cart</text>
        <rect fill="none" height="261.1641" style="stroke: #000000; stroke-width: 2.0;" width="696" x="13" y="526.4375"/>
        <polygon fill="#EEEEEE" points="13,526.4375,122,526.4375,122,534.4375,112,544.4375,13,544.4375,13,526.4375" style="stroke: #000000; stroke-width: 2.0;"/>
        <text fill="#000000" font-family="sans-serif" font-size="13" font-weight="bold" lengthAdjust="spacingAndGlyphs" textLength="64" x="28" y="540.9326">Chech out</text>
        <polygon fill="#A80036" points="146.5,562.7891,156.5,566.7891,146.5,570.7891,150.5,566.7891" style="stroke: #A80036; stroke-width: 1.0;"/>
        <line style="stroke: #A80036; stroke-width: 1.0;" x1="40.5" x2="152.5" y1="566.7891" y2="566.7891"/>
        <text fill="#000000" font-family="sans-serif" font-size="13" lengthAdjust="spacingAndGlyphs" textLength="59" x="47.5" y="562.2842">Check out</text>
        <polygon fill="#A80036" points="441.5,593.1406,451.5,597.1406,441.5,601.1406,445.5,597.1406" style="stroke: #A80036; stroke-width: 1.0;"/>
        <line style="stroke: #A80036; stroke-width: 1.0;" x1="158.5" x2="447.5" y1="597.1406" y2="597.1406"/>
        <text fill="#000000" font-family="sans-serif" font-size="13" lengthAdjust="spacingAndGlyphs" textLength="59" x="165.5" y="592.6357">Check out</text>
        <polygon fill="#A80036" points="545.5,623.4922,555.5,627.4922,545.5,631.4922,549.5,627.4922" style="stroke: #A80036; stroke-width: 1.0;"/>
        <line style="stroke: #A80036; stroke-width: 1.0;" x1="453.5" x2="551.5" y1="627.4922" y2="627.4922"/>
        <text fill="#000000" font-family="sans-serif" font-size="13" lengthAdjust="spacingAndGlyphs" textLength="80" x="460.5" y="622.9873">Shopping cart</text>
        <polygon fill="#A80036" points="653.5,653.8438,663.5,657.8438,653.5,661.8438,657.5,657.8438" style="stroke: #A80036; stroke-width: 1.0;"/>
        <line style="stroke: #A80036; stroke-width: 1.0;" x1="557.5" x2="659.5" y1="657.8438" y2="657.8438"/>
        <text fill="#000000" font-family="sans-serif" font-size="13" lengthAdjust="spacingAndGlyphs" textLength="84" x="564.5" y="653.3389">Execute query</text>
        <polygon fill="#A80036" points="568.5,684.1953,558.5,688.1953,568.5,692.1953,564.5,688.1953" style="stroke: #A80036; stroke-width: 1.0;"/>
        <line style="stroke: #A80036; stroke-width: 1.0;" x1="562.5" x2="664.5" y1="688.1953" y2="688.1953"/>
        <text fill="#000000" font-family="sans-serif" font-size="13" lengthAdjust="spacingAndGlyphs" textLength="59" x="574.5" y="683.6904">Result set</text>
        <polygon fill="#A80036" points="464.5,714.5469,454.5,718.5469,464.5,722.5469,460.5,718.5469" style="stroke: #A80036; stroke-width: 1.0;"/>
        <line style="stroke: #A80036; stroke-width: 1.0;" x1="458.5" x2="556.5" y1="718.5469" y2="718.5469"/>
        <text fill="#000000" font-family="sans-serif" font-size="13" lengthAdjust="spacingAndGlyphs" textLength="53" x="470.5" y="714.042">Invoice id</text>
        <polygon fill="#A80036" points="313,744.8984,303,748.8984,313,752.8984,309,748.8984" style="stroke: #A80036; stroke-width: 1.0;"/>
        <line style="stroke: #A80036; stroke-width: 1.0;" x1="307" x2="452.5" y1="748.8984" y2="748.8984"/>
        <text fill="#000000" font-family="sans-serif" font-size="13" lengthAdjust="spacingAndGlyphs" textLength="106" x="319" y="744.3936">Redirect to invoice</text>
        <polygon fill="#A80036" points="51.5,775.25,41.5,779.25,51.5,783.25,47.5,779.25" style="stroke: #A80036; stroke-width: 1.0;"/>
        <line style="stroke: #A80036; stroke-width: 1.0;" x1="45.5" x2="301" y1="779.25" y2="779.25"/>
        <text fill="#000000" font-family="sans-serif" font-size="13" lengthAdjust="spacingAndGlyphs" textLength="68" x="57.5" y="774.7451">Show Order</text>
        <!--
@startuml

title "Shop page - Sequence Diagram"

skinparam shadowing false

actor User
boundary "shopPage.jsp" as SP
boundary "userSpecificOrderPage.jsp" as IN
participant "shopPage.java" as SC
participant "DAO" as DAO
database "Database" as DB

group Add to cart
User -> SP : Input cupcake
SP -> SC : Add to cart
SC -> SC : Update cart
SC -> SP : Shopping cart
SP -> User : Show cart
end

group Update cart
User -> SP : Update cupcake
SP -> SC : Update cart
SC -> SC : Update cart
SC -> SP : Shopping cart
SP -> User : Show cart
end

group Chech out
User -> SP : Check out
SP -> SC : Check out
SC -> DAO : Shopping cart
DAO -> DB : Execute query
DB -> DAO : Result set
DAO -> SC : Invoice id
SC -> IN : Redirect to invoice
IN -> User : Show Order
end



@enduml

PlantUML version 2017.11(Wed Apr 19 18:18:59 CEST 2017)
(GPL source distribution)
Java Runtime: Java(TM) SE Runtime Environment
JVM: Java HotSpot(TM) Client VM
Java Version: 1.8.0_144-b01
Operating System: Windows 10
OS Version: 10.0
Default Encoding: Cp1252
Language: en
Country: US
-->
    </g>
</svg>
