<?xml version="1.0" encoding="UTF-8"?><svg xmlns="http://www.w3.org/2000/svg" xmlns:xlink="http://www.w3.org/1999/xlink" contentScriptType="application/ecmascript" contentStyleType="text/css" height="498px" preserveAspectRatio="none" style="width:691px;height:498px;" version="1.1" viewBox="0 0 691 498" width="691px" zoomAndPan="magnify">
    <defs/>
    <g>
        <text fill="#000000" font-family="sans-serif" font-size="14" font-weight="bold" lengthAdjust="spacingAndGlyphs" textLength="219" x="242.75" y="24.5332">"Register - Sequence Diagram"</text>
        <line style="stroke: #A80036; stroke-width: 1.0; stroke-dasharray: 5.0,5.0;" x1="25" x2="25" y1="115.2188" y2="421.3828"/>
        <line style="stroke: #A80036; stroke-width: 1.0; stroke-dasharray: 5.0,5.0;" x1="257.5" x2="257.5" y1="115.2188" y2="421.3828"/>
        <line style="stroke: #A80036; stroke-width: 1.0; stroke-dasharray: 5.0,5.0;" x1="361.5" x2="361.5" y1="115.2188" y2="421.3828"/>
        <line style="stroke: #A80036; stroke-width: 1.0; stroke-dasharray: 5.0,5.0;" x1="450.5" x2="450.5" y1="115.2188" y2="421.3828"/>
        <line style="stroke: #A80036; stroke-width: 1.0; stroke-dasharray: 5.0,5.0;" x1="533.5" x2="533.5" y1="115.2188" y2="421.3828"/>
        <line style="stroke: #A80036; stroke-width: 1.0; stroke-dasharray: 5.0,5.0;" x1="646.5" x2="646.5" y1="115.2188" y2="421.3828"/>
        <text fill="#000000" font-family="sans-serif" font-size="14" lengthAdjust="spacingAndGlyphs" textLength="29" x="8" y="112.1426">User</text>
        <ellipse cx="25.5" cy="44.6094" fill="#FEFECE" rx="8" ry="8" style="stroke: #A80036; stroke-width: 2.0;"/>
        <path d="M25.5,52.6094 L25.5,79.6094 M12.5,60.6094 L38.5,60.6094 M25.5,79.6094 L12.5,94.6094 M25.5,79.6094 L38.5,94.6094 " fill="#FEFECE" style="stroke: #A80036; stroke-width: 2.0;"/>
        <text fill="#000000" font-family="sans-serif" font-size="14" lengthAdjust="spacingAndGlyphs" textLength="29" x="8" y="434.916">User</text>
        <ellipse cx="25.5" cy="447.9922" fill="#FEFECE" rx="8" ry="8" style="stroke: #A80036; stroke-width: 2.0;"/>
        <path d="M25.5,455.9922 L25.5,482.9922 M12.5,463.9922 L38.5,463.9922 M25.5,482.9922 L12.5,497.9922 M25.5,482.9922 L38.5,497.9922 " fill="#FEFECE" style="stroke: #A80036; stroke-width: 2.0;"/>
        <text fill="#000000" font-family="sans-serif" font-size="14" lengthAdjust="spacingAndGlyphs" textLength="124" x="192.5" y="112.1426">createUserPage.jsp</text>
        <path d="M237,69.6094 L237,93.6094 M237,81.6094 L254,81.6094 " fill="#FEFECE" style="stroke: #A80036; stroke-width: 2.0;"/>
        <ellipse cx="266" cy="81.6094" fill="#FEFECE" rx="12" ry="12" style="stroke: #A80036; stroke-width: 2.0;"/>
        <text fill="#000000" font-family="sans-serif" font-size="14" lengthAdjust="spacingAndGlyphs" textLength="124" x="192.5" y="434.916">createUserPage.jsp</text>
        <path d="M237,441.9922 L237,465.9922 M237,453.9922 L254,453.9922 " fill="#FEFECE" style="stroke: #A80036; stroke-width: 2.0;"/>
        <ellipse cx="266" cy="453.9922" fill="#FEFECE" rx="12" ry="12" style="stroke: #A80036; stroke-width: 2.0;"/>
        <text fill="#000000" font-family="sans-serif" font-size="14" lengthAdjust="spacingAndGlyphs" textLength="52" x="332.5" y="112.1426">login.jsp</text>
        <path d="M341,69.6094 L341,93.6094 M341,81.6094 L358,81.6094 " fill="#FEFECE" style="stroke: #A80036; stroke-width: 2.0;"/>
        <ellipse cx="370" cy="81.6094" fill="#FEFECE" rx="12" ry="12" style="stroke: #A80036; stroke-width: 2.0;"/>
        <text fill="#000000" font-family="sans-serif" font-size="14" lengthAdjust="spacingAndGlyphs" textLength="52" x="332.5" y="434.916">login.jsp</text>
        <path d="M341,441.9922 L341,465.9922 M341,453.9922 L358,453.9922 " fill="#FEFECE" style="stroke: #A80036; stroke-width: 2.0;"/>
        <ellipse cx="370" cy="453.9922" fill="#FEFECE" rx="12" ry="12" style="stroke: #A80036; stroke-width: 2.0;"/>
        <rect fill="#FEFECE" height="31.6094" style="stroke: #A80036; stroke-width: 1.5;" width="101" x="400.5" y="82.6094"/>
        <text fill="#000000" font-family="sans-serif" font-size="14" lengthAdjust="spacingAndGlyphs" textLength="87" x="407.5" y="104.1426">welcomePage</text>
        <rect fill="#FEFECE" height="31.6094" style="stroke: #A80036; stroke-width: 1.5;" width="101" x="400.5" y="420.3828"/>
        <text fill="#000000" font-family="sans-serif" font-size="14" lengthAdjust="spacingAndGlyphs" textLength="87" x="407.5" y="441.916">welcomePage</text>
        <rect fill="#FEFECE" height="31.6094" style="stroke: #A80036; stroke-width: 1.5;" width="44" x="511.5" y="82.6094"/>
        <text fill="#000000" font-family="sans-serif" font-size="14" lengthAdjust="spacingAndGlyphs" textLength="30" x="518.5" y="104.1426">DAO</text>
        <rect fill="#FEFECE" height="31.6094" style="stroke: #A80036; stroke-width: 1.5;" width="44" x="511.5" y="420.3828"/>
        <text fill="#000000" font-family="sans-serif" font-size="14" lengthAdjust="spacingAndGlyphs" textLength="30" x="518.5" y="441.916">DAO</text>
        <text fill="#000000" font-family="sans-serif" font-size="14" lengthAdjust="spacingAndGlyphs" textLength="94" x="596.5" y="112.1426">ShopDatabase</text>
        <path d="M628.5,61.6094 C628.5,51.6094 646.5,51.6094 646.5,51.6094 C646.5,51.6094 664.5,51.6094 664.5,61.6094 L664.5,87.6094 C664.5,97.6094 646.5,97.6094 646.5,97.6094 C646.5,97.6094 628.5,97.6094 628.5,87.6094 L628.5,61.6094 " fill="#FEFECE" style="stroke: #000000; stroke-width: 1.5;"/>
        <path d="M628.5,61.6094 C628.5,71.6094 646.5,71.6094 646.5,71.6094 C646.5,71.6094 664.5,71.6094 664.5,61.6094 " fill="none" style="stroke: #000000; stroke-width: 1.5;"/>
        <text fill="#000000" font-family="sans-serif" font-size="14" lengthAdjust="spacingAndGlyphs" textLength="94" x="596.5" y="434.916">ShopDatabase</text>
        <path d="M628.5,447.9922 C628.5,437.9922 646.5,437.9922 646.5,437.9922 C646.5,437.9922 664.5,437.9922 664.5,447.9922 L664.5,473.9922 C664.5,483.9922 646.5,483.9922 646.5,483.9922 C646.5,483.9922 628.5,483.9922 628.5,473.9922 L628.5,447.9922 " fill="#FEFECE" style="stroke: #000000; stroke-width: 1.5;"/>
        <path d="M628.5,447.9922 C628.5,457.9922 646.5,457.9922 646.5,457.9922 C646.5,457.9922 664.5,457.9922 664.5,447.9922 " fill="none" style="stroke: #000000; stroke-width: 1.5;"/>
        <polygon fill="#A80036" points="245.5,143.2188,255.5,147.2188,245.5,151.2188,249.5,147.2188" style="stroke: #A80036; stroke-width: 1.0;"/>
        <line style="stroke: #A80036; stroke-width: 1.0;" x1="25.5" x2="251.5" y1="147.2188" y2="147.2188"/>
        <text fill="#000000" font-family="sans-serif" font-size="13" lengthAdjust="spacingAndGlyphs" textLength="208" x="32.5" y="142.7139">username &amp; password &amp; password2</text>
        <polygon fill="#A80036" points="439,173.5703,449,177.5703,439,181.5703,443,177.5703" style="stroke: #A80036; stroke-width: 1.0;"/>
        <line style="stroke: #A80036; stroke-width: 1.0;" x1="257.5" x2="445" y1="177.5703" y2="177.5703"/>
        <text fill="#000000" font-family="sans-serif" font-size="13" lengthAdjust="spacingAndGlyphs" textLength="108" x="264.5" y="173.0654">http POST register</text>
        <polygon fill="#A80036" points="521.5,203.9219,531.5,207.9219,521.5,211.9219,525.5,207.9219" style="stroke: #A80036; stroke-width: 1.0;"/>
        <line style="stroke: #A80036; stroke-width: 1.0;" x1="451" x2="527.5" y1="207.9219" y2="207.9219"/>
        <text fill="#000000" font-family="sans-serif" font-size="13" lengthAdjust="spacingAndGlyphs" textLength="51" x="458" y="203.417">validate()</text>
        <polygon fill="#A80036" points="634.5,234.2734,644.5,238.2734,634.5,242.2734,638.5,238.2734" style="stroke: #A80036; stroke-width: 1.0;"/>
        <line style="stroke: #A80036; stroke-width: 1.0;" x1="533.5" x2="640.5" y1="238.2734" y2="238.2734"/>
        <text fill="#000000" font-family="sans-serif" font-size="13" lengthAdjust="spacingAndGlyphs" textLength="89" x="540.5" y="233.7686">executeQuery()</text>
        <polygon fill="#A80036" points="544.5,264.625,534.5,268.625,544.5,272.625,540.5,268.625" style="stroke: #A80036; stroke-width: 1.0;"/>
        <line style="stroke: #A80036; stroke-width: 1.0;" x1="538.5" x2="645.5" y1="268.625" y2="268.625"/>
        <text fill="#000000" font-family="sans-serif" font-size="13" lengthAdjust="spacingAndGlyphs" textLength="50" x="550.5" y="264.1201">resultset</text>
        <line style="stroke: #A80036; stroke-width: 1.0;" x1="533.5" x2="575.5" y1="299.3281" y2="299.3281"/>
        <line style="stroke: #A80036; stroke-width: 1.0;" x1="575.5" x2="575.5" y1="299.3281" y2="312.3281"/>
        <line style="stroke: #A80036; stroke-width: 1.0;" x1="534.5" x2="575.5" y1="312.3281" y2="312.3281"/>
        <polygon fill="#A80036" points="544.5,308.3281,534.5,312.3281,544.5,316.3281,540.5,312.3281" style="stroke: #A80036; stroke-width: 1.0;"/>
        <text fill="#000000" font-family="sans-serif" font-size="13" lengthAdjust="spacingAndGlyphs" textLength="97" x="540.5" y="294.4717">validate resultset</text>
        <polygon fill="#A80036" points="462,338.3281,452,342.3281,462,346.3281,458,342.3281" style="stroke: #A80036; stroke-width: 1.0;"/>
        <line style="stroke: #A80036; stroke-width: 1.0;" x1="456" x2="532.5" y1="342.3281" y2="342.3281"/>
        <text fill="#000000" font-family="sans-serif" font-size="13" lengthAdjust="spacingAndGlyphs" textLength="19" x="468" y="337.8232">OK</text>
        <polygon fill="#A80036" points="372.5,368.6797,362.5,372.6797,372.5,376.6797,368.5,372.6797" style="stroke: #A80036; stroke-width: 1.0;"/>
        <line style="stroke: #A80036; stroke-width: 1.0;" x1="366.5" x2="450" y1="372.6797" y2="372.6797"/>
        <text fill="#000000" font-family="sans-serif" font-size="13" lengthAdjust="spacingAndGlyphs" textLength="43" x="378.5" y="368.1748">redirect</text>
        <polygon fill="#A80036" points="36.5,399.0313,26.5,403.0313,36.5,407.0313,32.5,403.0313" style="stroke: #A80036; stroke-width: 1.0;"/>
        <line style="stroke: #A80036; stroke-width: 1.0;" x1="30.5" x2="360.5" y1="403.0313" y2="403.0313"/>
        <text fill="#000000" font-family="sans-serif" font-size="13" lengthAdjust="spacingAndGlyphs" textLength="56" x="42.5" y="398.5264">login form</text>
        <!--
@startuml

title "Register - Sequence Diagram"

skinparam shadowing false

actor User
boundary createUserPage.jsp
boundary login.jsp
participant welcomePage
participant DAO
database ShopDatabase

User -> createUserPage.jsp : username & password & password2
createUserPage.jsp -> welcomePage: http POST register
welcomePage -> DAO: validate()
DAO -> ShopDatabase: executeQuery()
ShopDatabase -> DAO: resultset
DAO -> DAO: validate resultset
DAO -> welcomePage: OK
welcomePage -> login.jsp: redirect
login.jsp -> User: login form

@enduml

PlantUML version 2017.11(Wed Apr 19 18:18:59 CEST 2017)
(GPL source distribution)
Java Runtime: Java(TM) SE Runtime Environment
JVM: Java HotSpot(TM) 64-Bit Server VM
Java Version: 1.8.0_144-b01
Operating System: Windows 10
OS Version: 10.0
Default Encoding: Cp1252
Language: da
Country: DK
-->
    </g>
</svg>
